<svg xmlns="http://www.w3.org/2000/svg" xmlns:xlink="http://www.w3.org/1999/xlink" zoomAndPan="magnify" preserveAspectRatio="xMidYMid meet" version="1.0" viewBox="-2.99 137.5 380.98 126.75"><defs><g/><clipPath id="9c47b46263"><path d="M 0.0117188 140.503906 L 374.988281 140.503906 L 374.988281 261.253906 L 0.0117188 261.253906 Z M 0.0117188 140.503906 " clip-rule="nonzero"/></clipPath><clipPath id="02e26d9869"><path d="M 9.445312 151.859375 L 185.691406 151.859375 L 185.691406 250 L 9.445312 250 Z M 9.445312 151.859375 " clip-rule="nonzero"/></clipPath></defs><g clip-path="url(#9c47b46263)"><path stroke-linecap="butt" transform="matrix(0.75, 0, 0, 0.749345, 0.0119625, 140.502238)" fill="none" stroke-linejoin="miter" d="M -0.000324987 0.00222631 L 499.96849 0.00222631 L 499.96849 161.142855 L -0.000324987 161.142855 L -0.000324987 0.00222631 " stroke="#000000" stroke-width="6" stroke-opacity="1" stroke-miterlimit="4"/></g><g clip-path="url(#02e26d9869)"><path fill="#000000" d="M 9.445312 151.859375 L 185.578125 151.859375 L 185.578125 249.710938 L 9.445312 249.710938 Z M 9.445312 151.859375 " fill-opacity="1" fill-rule="nonzero"/></g><g fill="#ffffff" fill-opacity="1"><g transform="translate(50.718091, 216.225225)"><g><path d="M 12.765625 0 L 16.910156 0 L 16.910156 -29.015625 L 28.027344 -29.015625 L 28.027344 -32.972656 L 1.601562 -32.972656 L 1.601562 -29.015625 L 12.765625 -29.015625 Z M 12.765625 0 "/></g></g></g><g fill="#ffffff" fill-opacity="1"><g transform="translate(83.963061, 216.225225)"><g><path d="M 4.804688 0 L 8.949219 0 L 8.949219 -32.972656 L 4.804688 -32.972656 Z M 4.804688 0 "/></g></g></g><g fill="#ffffff" fill-opacity="1"><g transform="translate(101.292578, 216.225225)"><g><path d="M 4.804688 0 L 8.949219 0 L 8.949219 -25.246094 L 19.878906 -8.761719 L 23.269531 -8.761719 L 34.195312 -25.199219 L 34.195312 0 L 38.339844 0 L 38.339844 -32.972656 L 34.480469 -32.972656 L 21.621094 -13.425781 L 8.667969 -32.972656 L 4.804688 -32.972656 Z M 4.804688 0 "/></g></g></g><g fill="#000000" fill-opacity="1"><g transform="translate(193.377078, 216.478877)"><g><path d="M 10.832031 0 L 20.300781 0 L 26.28125 -18.324219 L 32.265625 0 L 41.730469 0 L 52.328125 -32.972656 L 42.34375 -32.972656 L 40.035156 -25.625 L 36.644531 -15.074219 L 30.804688 -32.972656 L 21.761719 -32.972656 L 19.3125 -25.625 L 15.96875 -15.355469 L 12.625 -25.625 L 10.316406 -32.972656 L 0.234375 -32.972656 Z M 10.832031 0 "/></g></g></g><g fill="#000000" fill-opacity="1"><g transform="translate(245.939305, 216.478877)"><g><path d="M 19.546875 0.707031 C 30.050781 0.707031 37.492188 -6.40625 37.492188 -16.484375 C 37.492188 -26.566406 30.050781 -33.675781 19.546875 -33.675781 C 9.042969 -33.675781 1.601562 -26.566406 1.601562 -16.484375 C 1.601562 -6.40625 9.042969 0.707031 19.546875 0.707031 Z M 11.257812 -16.484375 C 11.257812 -21.429688 14.695312 -24.871094 19.546875 -24.871094 C 24.445312 -24.871094 27.835938 -21.429688 27.835938 -16.484375 C 27.835938 -11.539062 24.445312 -8.101562 19.546875 -8.101562 C 14.695312 -8.101562 11.257812 -11.539062 11.257812 -16.484375 Z M 11.257812 -16.484375 "/></g></g></g><g fill="#000000" fill-opacity="1"><g transform="translate(285.078391, 216.478877)"><g><path d="M 3.484375 0 L 13 0 L 13 -9.375 L 16.578125 -9.375 L 21.289062 0 L 32.074219 0 L 26 -11.117188 C 29.484375 -13.046875 31.464844 -16.53125 31.464844 -21.148438 C 31.464844 -28.449219 26.519531 -32.972656 18.511719 -32.972656 L 3.484375 -32.972656 Z M 12.8125 -16.957031 L 12.8125 -25.199219 L 17.238281 -25.199219 C 20.253906 -25.199219 21.902344 -23.738281 21.902344 -21.101562 C 21.902344 -18.464844 20.253906 -16.957031 17.238281 -16.957031 Z M 12.8125 -16.957031 "/></g></g></g><g fill="#000000" fill-opacity="1"><g transform="translate(318.98951, 216.478877)"><g><path d="M 3.484375 0 L 13 0 L 13 -12.480469 L 17.144531 -12.480469 L 23.457031 0 L 34.476562 0 L 25.8125 -16.015625 C 26.800781 -17.191406 27.695312 -18.746094 28.449219 -20.675781 L 33.347656 -32.972656 L 23.03125 -32.972656 L 20.066406 -24.726562 C 19.074219 -21.855469 17.992188 -21.148438 14.601562 -21.148438 L 13 -21.148438 L 13 -32.972656 L 3.484375 -32.972656 Z M 3.484375 0 "/></g></g></g></svg>